<?xml version="1.0" encoding="UTF-8"?>
<svg version="1.1" xmlns="http://www.w3.org/2000/svg" width="500" height="500">
<path d="M0 0 C165 0 330 0 500 0 C500 165 500 330 500 500 C335 500 170 500 0 500 C0 335 0 170 0 0 Z " fill="#FEFEFE" transform="translate(0,0)"/>
<path d="M0 0 C1.49192194 0.00138269 1.49192194 0.00138269 3.01398373 0.00279331 C4.15126919 0.00141865 5.28855465 0.00004398 6.46030331 -0.00137234 C8.34843494 0.00402058 8.34843494 0.00402058 10.27471066 0.00952244 C11.59158871 0.00937641 12.90846676 0.00923038 14.26525021 0.00907993 C17.88698982 0.00879196 21.5086966 0.01468859 25.13042855 0.02165389 C28.91142598 0.02788753 32.69242409 0.02849124 36.47342587 0.0296793 C43.63805004 0.03279258 50.80265904 0.04100594 57.96727651 0.05102879 C66.12191876 0.06219001 74.27656171 0.0677004 82.43120968 0.07272422 C99.21035107 0.08318855 115.98947717 0.10078794 132.76860714 0.12304783 C133.71661716 2.15283409 134.66190971 4.18388965 135.60610104 6.21545506 C136.13281084 7.34635815 136.65952065 8.47726124 137.20219135 9.64243412 C139.72327665 15.24434654 141.88285289 20.97363164 144.05766964 26.71679783 C145.11279138 29.47607424 146.17297211 32.23338983 147.23442745 34.99023533 C147.51481302 35.71881496 147.79519859 36.4473946 148.0840807 37.19805241 C151.61874054 46.3595886 155.26768805 55.47548568 158.91704464 64.59179783 C159.27955633 65.49768776 159.64206802 66.40357769 160.01556492 67.33691883 C162.32004988 73.09455871 164.62719574 78.85112967 166.93494701 84.60746098 C169.00390259 89.76947064 171.07061408 94.93237862 173.13750362 100.0952158 C176.59909406 108.74124435 180.06164646 117.38688696 183.5249548 126.03222752 C197.62602824 161.23301874 211.7141922 196.438981 225.78183651 231.65314579 C226.73482913 234.03850094 227.68802774 236.42377367 228.6412878 238.80902195 C231.80637389 246.72936362 234.96727396 254.65133642 238.1194067 262.57684422 C238.99340674 264.7729287 239.86877731 266.96846837 240.74568844 269.16339207 C241.90713452 272.07152354 243.06327969 274.98170279 244.21782589 277.89257908 C244.54086697 278.69821796 244.86390804 279.50385685 245.19673824 280.33390903 C247.39292132 285.89644665 249.03445916 291.34255456 250.76860714 297.12304783 C210.50860714 297.12304783 170.24860714 297.12304783 128.76860714 297.12304783 C125.71381967 289.79155791 122.76300581 282.58118853 120.15923214 275.10351658 C119.83568249 274.18418339 119.51213284 273.2648502 119.17877865 272.31765842 C118.48472937 270.34512334 117.79210064 268.37208794 117.10079098 266.39859104 C115.21587901 261.01993965 113.31820077 255.64579465 111.42095089 250.27148533 C111.03150799 249.16781116 110.64206509 248.064137 110.24082088 246.92701817 C105.73982927 234.18617284 101.13855718 221.48209966 96.52886105 208.78027439 C95.82097313 206.82944359 95.11312889 204.87859694 94.40532589 202.92773533 C94.04630184 201.93833958 93.68727779 200.94894382 93.31737423 199.92956638 C90.4201183 191.93779724 87.54434429 183.93842858 84.67352772 175.93713665 C83.16178912 171.72477355 81.64812424 167.51310204 80.13463211 163.30136871 C78.89595654 159.853685 77.65869888 156.40550493 76.42452145 152.95620823 C75.48605823 150.33339406 74.54573533 147.71126309 73.60312557 145.08993626 C72.74208774 142.69540597 71.88378036 140.29989143 71.0286932 137.90322971 C69.19385875 132.81281528 67.36277482 127.87728899 64.76860714 123.12304783 C62.35107327 129.69836962 59.93415917 136.27391901 57.51763058 142.84961033 C56.69940627 145.07589695 55.88105175 147.30213573 55.06255245 149.52832127 C53.87045797 152.77070109 52.67886867 156.01326624 51.48735714 159.25586033 C51.1349194 160.21412724 50.78248165 161.17239414 50.41936398 162.15969944 C46.50894966 172.80453375 42.64417733 183.46522981 38.76860714 194.12304783 C55.59860714 194.12304783 72.42860714 194.12304783 89.76860714 194.12304783 C92.91752487 201.68045038 95.90085173 209.08588765 98.51860714 216.81054783 C99.21280741 218.83046167 99.90816065 220.84997955 100.60454464 222.86914158 C100.96000362 223.90023045 101.31546261 224.93131931 101.68169308 225.9936533 C106.59809321 240.14873346 111.78883435 254.20643937 117.01860714 268.24804783 C126.76860714 294.4404657 126.76860714 294.4404657 126.76860714 297.12304783 C45.91860714 297.12304783 -34.93139286 297.12304783 -118.23139286 297.12304783 C-114.85657298 285.87364823 -114.85657298 285.87364823 -113.30878544 281.95678806 C-112.9596056 281.06719395 -112.61042576 280.17759983 -112.25066471 279.26104832 C-111.87950031 278.32734409 -111.50833591 277.39363987 -111.12592411 276.43164158 C-110.72990498 275.42566929 -110.33388584 274.419697 -109.92586613 273.3832407 C-108.6355034 270.10756581 -107.3396546 266.83409029 -106.04389286 263.56054783 C-105.13669177 261.25970487 -104.22995924 258.9586771 -103.32367802 256.65747166 C-101.49198388 252.00680585 -99.65877929 247.35673992 -97.82465458 242.7070322 C-94.5508149 234.40170556 -91.30412597 226.08587896 -88.0635767 217.76751804 C-86.44878818 213.62255954 -84.83227505 209.47827381 -83.21576786 205.33398533 C-82.893326 204.50726322 -82.57088413 203.68054111 -82.2386713 202.82876682 C-78.2853691 192.69477755 -74.32102691 182.56510801 -70.35639286 172.43554783 C-69.98141666 171.47748234 -69.60644047 170.51941685 -69.22010136 169.53231907 C-67.31805452 164.67270624 -65.41586778 159.81314819 -63.51361942 154.95361423 C-60.12641847 146.30038842 -56.74044176 137.64668356 -53.3543787 128.99301243 C-51.48010081 124.20300438 -49.60574276 119.4130277 -47.73139286 114.62304783 C-46.98139248 112.70638131 -46.23139248 110.78971465 -45.48139286 108.87304783 C-40.98139286 97.37304782 -40.98139286 97.37304782 -39.85660648 94.49859715 C-39.10589134 92.58010062 -38.35517927 90.6616029 -37.60447025 88.74310398 C-35.74043704 83.97942427 -33.87635208 79.21576482 -32.01215458 74.45214939 C-28.50635989 65.49357007 -25.00110182 56.5347818 -21.49756718 47.57531834 C-19.84783815 43.35661466 -18.19782926 39.13802046 -16.54779911 34.91943455 C-15.76347963 32.91395536 -14.97929635 30.9084229 -14.19526005 28.90283298 C-13.10609002 26.11672662 -12.01644474 23.33080654 -10.92670536 20.54492283 C-10.61081455 19.73649937 -10.29492374 18.9280759 -9.96946049 18.09515476 C-9.05963112 15.76998482 -8.14584386 13.44640359 -7.23139286 11.12304783 C-6.87381901 10.20801487 -6.51624516 9.29298191 -6.14783573 8.35022068 C-5.78981876 7.44155247 -5.4318018 6.53288425 -5.06293583 5.59668064 C-4.5734798 4.34942204 -4.5734798 4.34942204 -4.07413578 3.07696629 C-2.81393904 0.15517173 -2.81393904 0.15517173 0 0 Z " fill="#000000" transform="translate(192.2313928604126,99.87695217132568)"/>
<path d="M0 0 C3.40352125 3.79032883 4.68744946 8.22604764 6.30859375 12.95703125 C6.62690659 13.86617279 6.94521942 14.77531433 7.2731781 15.71200562 C7.96718778 17.69567852 8.65812378 19.68042881 9.34637451 21.66610718 C11.2373129 27.11885761 13.15290829 32.56294631 15.06640625 38.0078125 C15.46815063 39.15253525 15.86989502 40.297258 16.28381348 41.47666931 C20.7161661 54.08269509 25.29151119 66.63581458 29.875 79.1875 C37.62482554 100.42796579 45.29381922 121.69624729 52.90966797 142.98510742 C53.28956879 144.0470079 53.6694696 145.10890839 54.06088257 146.20298767 C54.76114443 148.16091344 55.46106785 150.1189603 56.16055298 152.0771637 C56.63505386 153.40456825 56.63505386 153.40456825 57.11914062 154.75878906 C57.42247314 155.61347778 57.72580566 156.4681665 58.03833008 157.34875488 C58.72516142 159.24229256 59.43607158 161.12716676 60.1628418 163.0057373 C60.53900635 163.98836548 60.9151709 164.97099365 61.30273438 165.98339844 C61.6509021 166.87267029 61.99906982 167.76194214 62.35778809 168.67816162 C63 171 63 171 62 174 C59.87149699 170.09260318 58.44756113 165.92216318 56.9375 161.75 C54.56272506 155.23756096 52.15303392 148.74025806 49.69946289 142.25708008 C45.99890019 132.46969963 42.43864597 122.64694817 39.03295898 112.75317383 C36.09308458 104.22115501 33.04291364 95.73079587 29.96875 87.24633789 C29.43121094 85.76121704 29.43121094 85.76121704 28.8828125 84.24609375 C28.56715332 83.37654053 28.25149414 82.5069873 27.92626953 81.61108398 C26.91271952 78.7539629 25.95866702 75.87600106 25 73 C8.17 72.67 -8.66 72.34 -26 72 C-23.75006459 61.87529067 -23.75006459 61.87529067 -22.4152832 58.33251953 C-22.11769608 57.53363312 -21.82010895 56.7347467 -21.51350403 55.91165161 C-21.03695625 54.65987625 -21.03695625 54.65987625 -20.55078125 53.3828125 C-20.21507614 52.48617889 -19.87937103 51.58954529 -19.53349304 50.66574097 C-18.46543956 47.81668177 -17.38923836 44.97078678 -16.3125 42.125 C-15.60946156 40.2554205 -14.90698346 38.3856302 -14.20507812 36.515625 C-13.16315619 33.73985638 -12.12047796 30.96439508 -11.07424927 28.19024658 C-9.34665972 23.60665404 -7.63491307 19.01814436 -5.95458984 14.41699219 C-5.63217819 13.5346994 -5.30976654 12.65240662 -4.97758484 11.74337769 C-4.36720745 10.06908753 -3.75920077 8.39393067 -3.15388489 6.71780396 C-1.10933747 1.10933747 -1.10933747 1.10933747 0 0 Z " fill="#FBFBFB" transform="translate(257,222)"/>
<path d="M0 0 C2.35324025 3.52986038 3.64185267 7.19663297 5.0625 11.16015625 C5.36636124 11.99768433 5.67022247 12.8352124 5.98329163 13.69812012 C6.99305006 16.48475163 7.9968096 19.27349781 9 22.0625 C9.7021749 24.00846072 10.40457132 25.95434152 11.10717773 27.90014648 C12.22066196 30.9846387 13.33356329 34.06933488 14.44468689 37.15467834 C16.883037 43.9221653 19.34214101 50.68173502 21.81607056 57.43629456 C23.49590538 62.02548969 25.16829927 66.61737715 26.83959961 71.20968628 C27.65488984 73.44495931 28.47325094 75.67911466 29.29467773 77.91213989 C30.44587423 81.0438603 31.58555823 84.17954442 32.72265625 87.31640625 C33.07078873 88.25504517 33.4189212 89.19368408 33.77760315 90.1607666 C34.08697311 91.02109497 34.39634308 91.88142334 34.71508789 92.76782227 C34.98881729 93.51669205 35.26254669 94.26556183 35.54457092 95.03712463 C36 97 36 97 35 100 C32.87149699 96.09260318 31.44756113 91.92216318 29.9375 87.75 C27.56272506 81.23756096 25.15303392 74.74025806 22.69946289 68.25708008 C18.99948718 58.4712521 15.43815412 48.6505447 12.03515625 38.75756836 C9.07497529 30.16194289 5.99404125 21.61186701 2.88085938 13.07055664 C2.51927734 12.07403076 2.15769531 11.07750488 1.78515625 10.05078125 C1.46426025 9.17075439 1.14336426 8.29072754 0.81274414 7.3840332 C0.08809375 5.25840658 -0.58800178 3.20812529 -1 1 C-0.67 0.67 -0.34 0.34 0 0 Z " fill="#D5D5D5" transform="translate(284,296)"/>
</svg>
